<mxfile host="app.diagrams.net" modified="2023-08-18T19:44:27.748Z" agent="Mozilla/5.0 (X11; Linux x86_64) AppleWebKit/537.36 (KHTML, like Gecko) Chrome/115.0.0.0 Safari/537.36" etag="oIFzdEVdDvOb8oSkCAdc" version="21.6.8" type="google">
  <diagram name="Page-1" id="NfhytpbtrENilj_EFvWB">
    <mxGraphModel grid="1" page="1" gridSize="10" guides="1" tooltips="1" connect="1" arrows="1" fold="1" pageScale="1" pageWidth="3000" pageHeight="2000" math="0" shadow="0">
      <root>
        <mxCell id="0" />
        <mxCell id="1" parent="0" />
        <mxCell id="CsjMJ05iKtMCrPqu-CGu-1" value="Jugador" style="shape=umlActor;verticalLabelPosition=bottom;verticalAlign=top;html=1;" vertex="1" parent="1">
          <mxGeometry x="280" y="160" width="40" height="80" as="geometry" />
        </mxCell>
        <mxCell id="CsjMJ05iKtMCrPqu-CGu-4" value="" style="rounded=0;whiteSpace=wrap;html=1;fillColor=none;strokeColor=none;" vertex="1" parent="1">
          <mxGeometry x="280" y="160" width="40" height="80" as="geometry" />
        </mxCell>
        <mxCell id="CsjMJ05iKtMCrPqu-CGu-5" value="" style="ellipse;whiteSpace=wrap;html=1;" vertex="1" parent="1">
          <mxGeometry x="590" y="560" width="120" height="40" as="geometry" />
        </mxCell>
        <mxCell id="CsjMJ05iKtMCrPqu-CGu-6" value="&amp;lt;&amp;lt;INCLUDE&amp;gt;&amp;gt;" style="html=1;verticalAlign=bottom;endArrow=none;edgeStyle=elbowEdgeStyle;elbow=vertical;curved=0;rounded=0;endFill=0;" edge="1" parent="1">
          <mxGeometry width="80" relative="1" as="geometry">
            <mxPoint x="470" y="580.25" as="sourcePoint" />
            <mxPoint x="550" y="580.25" as="targetPoint" />
          </mxGeometry>
        </mxCell>
        <mxCell id="CsjMJ05iKtMCrPqu-CGu-7" value="&amp;lt;&amp;lt;EXTEND&amp;gt;&amp;gt;" style="html=1;verticalAlign=bottom;endArrow=none;dashed=1;endSize=8;edgeStyle=elbowEdgeStyle;elbow=vertical;curved=0;rounded=0;endFill=0;" edge="1" parent="1">
          <mxGeometry relative="1" as="geometry">
            <mxPoint x="550" y="620" as="sourcePoint" />
            <mxPoint x="470" y="620" as="targetPoint" />
          </mxGeometry>
        </mxCell>
        <mxCell id="CsjMJ05iKtMCrPqu-CGu-8" value="Seleccionar la primera figura" style="ellipse;whiteSpace=wrap;html=1;" vertex="1" parent="1">
          <mxGeometry x="400" y="150" width="120" height="40" as="geometry" />
        </mxCell>
        <mxCell id="CsjMJ05iKtMCrPqu-CGu-9" value="Seleccionar la segunda figura" style="ellipse;whiteSpace=wrap;html=1;" vertex="1" parent="1">
          <mxGeometry x="400" y="210" width="120" height="40" as="geometry" />
        </mxCell>
        <mxCell id="CsjMJ05iKtMCrPqu-CGu-10" value="&amp;lt;&amp;lt;INCLUDE&amp;gt;&amp;gt;" style="html=1;verticalAlign=bottom;endArrow=none;edgeStyle=elbowEdgeStyle;elbow=vertical;curved=0;rounded=0;endFill=0;exitX=1;exitY=0.5;exitDx=0;exitDy=0;entryX=0;entryY=0.5;entryDx=0;entryDy=0;" edge="1" parent="1" source="CsjMJ05iKtMCrPqu-CGu-8" target="CsjMJ05iKtMCrPqu-CGu-11">
          <mxGeometry x="-0.2727" width="80" relative="1" as="geometry">
            <mxPoint x="560" y="199.67" as="sourcePoint" />
            <mxPoint x="640" y="199.67" as="targetPoint" />
            <Array as="points">
              <mxPoint x="600" y="170" />
            </Array>
            <mxPoint as="offset" />
          </mxGeometry>
        </mxCell>
        <mxCell id="CsjMJ05iKtMCrPqu-CGu-11" value="Se giran las figuras seleccionadas" style="ellipse;whiteSpace=wrap;html=1;" vertex="1" parent="1">
          <mxGeometry x="600" y="180" width="120" height="40" as="geometry" />
        </mxCell>
        <mxCell id="CsjMJ05iKtMCrPqu-CGu-12" value="Verificar que las fichas sean iguales" style="ellipse;whiteSpace=wrap;html=1;" vertex="1" parent="1">
          <mxGeometry x="800" y="180" width="120" height="40" as="geometry" />
        </mxCell>
        <mxCell id="CsjMJ05iKtMCrPqu-CGu-13" value="&amp;lt;&amp;lt;INCLUDE&amp;gt;&amp;gt;" style="html=1;verticalAlign=bottom;endArrow=none;edgeStyle=elbowEdgeStyle;elbow=vertical;curved=0;rounded=0;endFill=0;exitX=1;exitY=0.5;exitDx=0;exitDy=0;entryX=0;entryY=0.5;entryDx=0;entryDy=0;" edge="1" parent="1" source="CsjMJ05iKtMCrPqu-CGu-11" target="CsjMJ05iKtMCrPqu-CGu-12">
          <mxGeometry width="80" relative="1" as="geometry">
            <mxPoint x="760" y="200.25" as="sourcePoint" />
            <mxPoint x="840" y="200.25" as="targetPoint" />
          </mxGeometry>
        </mxCell>
        <mxCell id="CsjMJ05iKtMCrPqu-CGu-14" value="Girar las&lt;br&gt;figuras seleccionadas de nuevo" style="ellipse;whiteSpace=wrap;html=1;" vertex="1" parent="1">
          <mxGeometry x="1000" y="180" width="120" height="40" as="geometry" />
        </mxCell>
        <mxCell id="CsjMJ05iKtMCrPqu-CGu-15" value="&amp;lt;&amp;lt;EXTEND&amp;gt;&amp;gt;" style="html=1;verticalAlign=bottom;endArrow=none;dashed=1;endSize=8;edgeStyle=elbowEdgeStyle;elbow=vertical;curved=0;rounded=0;endFill=0;entryX=1;entryY=0.5;entryDx=0;entryDy=0;exitX=0;exitY=0.5;exitDx=0;exitDy=0;" edge="1" parent="1" source="CsjMJ05iKtMCrPqu-CGu-14" target="CsjMJ05iKtMCrPqu-CGu-12">
          <mxGeometry relative="1" as="geometry">
            <mxPoint x="1040" y="199.58" as="sourcePoint" />
            <mxPoint x="960" y="199.58" as="targetPoint" />
          </mxGeometry>
        </mxCell>
        <mxCell id="CsjMJ05iKtMCrPqu-CGu-17" value="&amp;lt;&amp;lt;INCLUDE&amp;gt;&amp;gt;" style="html=1;verticalAlign=bottom;endArrow=none;edgeStyle=elbowEdgeStyle;elbow=vertical;curved=0;rounded=0;endFill=0;exitX=1;exitY=0.5;exitDx=0;exitDy=0;entryX=0;entryY=0.5;entryDx=0;entryDy=0;" edge="1" parent="1" source="CsjMJ05iKtMCrPqu-CGu-9" target="CsjMJ05iKtMCrPqu-CGu-11">
          <mxGeometry x="-0.2727" width="80" relative="1" as="geometry">
            <mxPoint x="570" y="209.67" as="sourcePoint" />
            <mxPoint x="650" y="209.67" as="targetPoint" />
            <Array as="points">
              <mxPoint x="670" y="230" />
            </Array>
            <mxPoint as="offset" />
          </mxGeometry>
        </mxCell>
        <mxCell id="CsjMJ05iKtMCrPqu-CGu-18" value="" style="endArrow=none;html=1;rounded=0;entryX=0;entryY=0.5;entryDx=0;entryDy=0;exitX=1;exitY=0.5;exitDx=0;exitDy=0;" edge="1" parent="1" source="CsjMJ05iKtMCrPqu-CGu-4" target="CsjMJ05iKtMCrPqu-CGu-8">
          <mxGeometry width="50" height="50" relative="1" as="geometry">
            <mxPoint x="710" y="330" as="sourcePoint" />
            <mxPoint x="760" y="280" as="targetPoint" />
          </mxGeometry>
        </mxCell>
        <mxCell id="CsjMJ05iKtMCrPqu-CGu-19" value="" style="endArrow=none;html=1;rounded=0;entryX=0;entryY=0.5;entryDx=0;entryDy=0;exitX=1;exitY=0.5;exitDx=0;exitDy=0;" edge="1" parent="1" source="CsjMJ05iKtMCrPqu-CGu-4" target="CsjMJ05iKtMCrPqu-CGu-9">
          <mxGeometry width="50" height="50" relative="1" as="geometry">
            <mxPoint x="330" y="210" as="sourcePoint" />
            <mxPoint x="410" y="180" as="targetPoint" />
          </mxGeometry>
        </mxCell>
        <mxCell id="CsjMJ05iKtMCrPqu-CGu-20" value="Juego" style="shape=umlActor;verticalLabelPosition=bottom;verticalAlign=top;html=1;" vertex="1" parent="1">
          <mxGeometry x="280" y="320" width="40" height="80" as="geometry" />
        </mxCell>
        <mxCell id="CsjMJ05iKtMCrPqu-CGu-21" value="" style="rounded=0;whiteSpace=wrap;html=1;fillColor=none;strokeColor=none;" vertex="1" parent="1">
          <mxGeometry x="280" y="320" width="40" height="80" as="geometry" />
        </mxCell>
        <mxCell id="CsjMJ05iKtMCrPqu-CGu-22" value="Descartar las figuras acertadas" style="ellipse;whiteSpace=wrap;html=1;" vertex="1" parent="1">
          <mxGeometry x="400" y="340" width="120" height="40" as="geometry" />
        </mxCell>
        <mxCell id="CsjMJ05iKtMCrPqu-CGu-24" value="&amp;lt;&amp;lt;INCLUDE&amp;gt;&amp;gt;" style="html=1;verticalAlign=bottom;endArrow=none;edgeStyle=elbowEdgeStyle;elbow=vertical;curved=0;rounded=0;endFill=0;exitX=1;exitY=0.5;exitDx=0;exitDy=0;entryX=0;entryY=0.5;entryDx=0;entryDy=0;" edge="1" parent="1" source="CsjMJ05iKtMCrPqu-CGu-22" target="CsjMJ05iKtMCrPqu-CGu-25">
          <mxGeometry width="80" relative="1" as="geometry">
            <mxPoint x="560" y="359.66999999999996" as="sourcePoint" />
            <mxPoint x="640" y="359.66999999999996" as="targetPoint" />
            <Array as="points">
              <mxPoint x="560" y="360" />
            </Array>
            <mxPoint as="offset" />
          </mxGeometry>
        </mxCell>
        <mxCell id="CsjMJ05iKtMCrPqu-CGu-25" value="Verificar que el array de viguras esté vacío" style="ellipse;whiteSpace=wrap;html=1;" vertex="1" parent="1">
          <mxGeometry x="600" y="340" width="120" height="40" as="geometry" />
        </mxCell>
        <mxCell id="CsjMJ05iKtMCrPqu-CGu-26" value="Mostrar pantalla de juego finalizado" style="ellipse;whiteSpace=wrap;html=1;" vertex="1" parent="1">
          <mxGeometry x="800" y="340" width="120" height="40" as="geometry" />
        </mxCell>
        <mxCell id="CsjMJ05iKtMCrPqu-CGu-27" value="&amp;lt;&amp;lt;INCLUDE&amp;gt;&amp;gt;" style="html=1;verticalAlign=bottom;endArrow=none;edgeStyle=elbowEdgeStyle;elbow=vertical;curved=0;rounded=0;endFill=0;exitX=1;exitY=0.5;exitDx=0;exitDy=0;entryX=0;entryY=0.5;entryDx=0;entryDy=0;" edge="1" parent="1" source="CsjMJ05iKtMCrPqu-CGu-25" target="CsjMJ05iKtMCrPqu-CGu-26">
          <mxGeometry width="80" relative="1" as="geometry">
            <mxPoint x="760" y="360.25" as="sourcePoint" />
            <mxPoint x="840" y="360.25" as="targetPoint" />
          </mxGeometry>
        </mxCell>
        <mxCell id="CsjMJ05iKtMCrPqu-CGu-28" value="Continuar juego" style="ellipse;whiteSpace=wrap;html=1;" vertex="1" parent="1">
          <mxGeometry x="1000" y="340" width="120" height="40" as="geometry" />
        </mxCell>
        <mxCell id="CsjMJ05iKtMCrPqu-CGu-29" value="&amp;lt;&amp;lt;EXTEND&amp;gt;&amp;gt;" style="html=1;verticalAlign=bottom;endArrow=none;dashed=1;endSize=8;edgeStyle=elbowEdgeStyle;elbow=vertical;curved=0;rounded=0;endFill=0;entryX=1;entryY=0.5;entryDx=0;entryDy=0;exitX=0;exitY=0.5;exitDx=0;exitDy=0;" edge="1" parent="1" source="CsjMJ05iKtMCrPqu-CGu-28" target="CsjMJ05iKtMCrPqu-CGu-26">
          <mxGeometry relative="1" as="geometry">
            <mxPoint x="1040" y="359.58000000000004" as="sourcePoint" />
            <mxPoint x="960" y="359.58000000000004" as="targetPoint" />
          </mxGeometry>
        </mxCell>
        <mxCell id="CsjMJ05iKtMCrPqu-CGu-31" value="" style="endArrow=none;html=1;rounded=0;entryX=0;entryY=0.5;entryDx=0;entryDy=0;exitX=1;exitY=0.5;exitDx=0;exitDy=0;" edge="1" parent="1" source="CsjMJ05iKtMCrPqu-CGu-21" target="CsjMJ05iKtMCrPqu-CGu-22">
          <mxGeometry width="50" height="50" relative="1" as="geometry">
            <mxPoint x="710" y="490" as="sourcePoint" />
            <mxPoint x="760" y="440" as="targetPoint" />
          </mxGeometry>
        </mxCell>
      </root>
    </mxGraphModel>
  </diagram>
</mxfile>
